<?xml version="1.0" encoding="utf-8"?>
<svg xmlns="http://www.w3.org/2000/svg" height="512pt" version="1.1" viewBox="0 0 512 512" width="512pt" style="background-color:transparent;">
  <path d="M 0.00 0.00 L 512.00 0.00 L 512.00 512.00 L 0.00 512.00 L 0.00 0.00 Z" fill="none" opacity="1.00" stroke="#fffeff" stroke-width="0.25"/>
  <path d="M 236.61 55.36 C 244.47 51.21 252.24 44.80 261.65 45.68 C 273.97 47.35 285.28 53.11 295.83 59.40 C 286.32 56.71 276.72 54.31 267.30 51.29 C 262.44 49.82 257.13 47.88 252.11 49.87 C 244.18 52.93 236.99 57.60 229.23 61.08 C 217.77 66.76 205.56 71.03 194.77 77.99 C 202.97 85.07 213.30 88.72 223.03 93.09 C 234.13 97.69 244.74 103.34 255.50 108.63 C 259.88 110.95 265.12 110.94 269.52 108.71 C 284.19 101.68 298.63 94.13 313.73 88.02 C 318.93 86.00 323.88 83.34 328.34 79.97 C 323.57 76.63 318.21 74.35 312.98 71.87 C 308.62 69.81 305.11 66.44 301.73 63.09 C 308.22 65.27 313.97 69.09 320.33 71.59 C 323.80 73.07 327.52 74.16 330.55 76.49 C 331.91 77.50 332.78 79.17 332.46 80.89 C 330.35 83.84 326.93 85.37 323.80 86.96 C 309.53 93.69 295.20 100.31 280.88 106.92 C 275.35 109.35 270.29 112.83 264.53 114.69 C 261.37 115.82 258.34 113.79 255.56 112.54 C 245.47 106.97 234.67 102.89 224.33 97.85 C 213.78 93.34 203.23 88.69 193.50 82.55 C 191.67 81.19 189.17 79.67 189.37 77.05 C 191.86 74.64 195.17 73.41 198.34 72.14 C 211.32 67.10 224.21 61.73 236.61 55.36 Z" fill="#97cceb" opacity="1.00" stroke="#97cceb" stroke-width="0.25"/>
  <path d="M 252.11 49.87 C 257.13 47.88 262.44 49.82 267.30 51.29 C 276.72 54.31 286.32 56.71 295.83 59.40 C 298.05 60.15 300.03 61.49 301.73 63.09 C 305.11 66.44 308.62 69.81 312.98 71.87 C 318.21 74.35 323.57 76.63 328.34 79.97 C 323.88 83.34 318.93 86.00 313.73 88.02 C 298.63 94.13 284.19 101.68 269.52 108.71 C 265.12 110.94 259.88 110.95 255.50 108.63 C 244.74 103.34 234.13 97.69 223.03 93.09 C 213.30 88.72 202.97 85.07 194.77 77.99 C 205.56 71.03 217.77 66.76 229.23 61.08 C 236.99 57.60 244.18 52.93 252.11 49.87 Z" fill="#4facdf" opacity="1.00" stroke="#4facdf" stroke-width="0.25"/>
  <path d="M 247.67 53.61 C 251.77 51.86 256.29 49.51 260.83 51.07 C 267.77 53.20 274.63 55.64 281.75 57.12 C 287.34 58.54 293.54 59.00 298.18 62.77 C 301.88 65.76 304.98 69.52 309.26 71.73 C 313.94 74.18 318.70 76.49 322.93 79.70 C 314.72 86.56 304.07 88.96 294.73 93.80 C 287.19 97.67 279.36 100.94 271.91 104.99 C 267.67 107.27 262.56 109.67 257.86 107.16 C 243.70 100.23 229.63 93.08 215.14 86.85 C 209.71 84.54 204.20 82.14 199.80 78.10 C 206.55 72.85 214.75 70.12 222.23 66.14 C 230.82 62.19 239.10 57.60 247.67 53.61 Z" fill="#0488ce" opacity="1.00" stroke="#0488ce" stroke-width="0.25"/>
  <path d="M 287.44 106.49 C 301.94 99.93 316.48 93.44 330.55 85.97 C 330.53 104.99 330.68 124.02 330.45 143.04 C 330.39 146.06 331.38 148.95 332.26 151.79 C 339.87 146.62 348.47 143.25 356.34 138.54 C 363.98 134.07 372.59 131.66 380.40 127.53 C 386.75 124.23 393.12 120.38 400.40 119.69 C 403.18 119.37 406.58 120.26 407.77 123.06 C 408.91 126.23 408.62 129.68 408.68 133.00 C 408.37 149.65 408.74 166.32 408.53 182.97 C 408.67 187.83 405.93 192.36 401.53 194.42 C 390.14 200.12 378.60 205.52 367.11 211.01 C 356.92 216.23 346.55 221.06 335.88 225.20 C 335.16 241.45 335.79 257.73 335.57 274.00 C 335.62 279.89 334.92 285.91 336.41 291.69 C 339.04 292.23 341.59 291.18 344.00 290.24 C 361.62 283.05 378.69 274.58 395.46 265.61 C 398.90 263.98 403.19 262.23 406.85 264.16 C 410.10 267.14 409.06 272.11 409.26 276.06 C 409.62 298.10 409.79 320.16 409.31 342.20 C 409.34 349.76 411.21 357.23 410.36 364.81 C 409.14 376.16 409.57 387.60 409.65 398.99 C 409.87 405.54 411.30 413.19 406.51 418.57 C 402.10 422.67 395.93 423.91 390.72 426.66 C 378.33 432.79 365.06 437.00 352.94 443.68 C 344.17 448.10 335.04 451.75 326.22 456.08 C 318.97 459.66 311.31 462.34 304.14 466.07 C 293.45 471.68 282.38 476.51 271.35 481.39 C 268.06 482.80 264.87 484.82 261.22 485.05 C 256.28 484.69 252.07 481.78 247.88 479.42 C 252.16 480.53 256.48 482.01 260.96 481.72 C 266.29 480.59 271.26 478.30 276.19 476.07 C 295.79 467.00 315.33 457.79 335.03 448.94 C 355.80 440.00 375.92 429.65 396.55 420.43 C 399.93 418.78 403.63 417.14 405.85 413.95 C 407.80 410.69 407.60 406.70 407.73 403.04 C 407.59 389.36 407.59 375.67 407.64 361.99 C 407.68 356.21 407.07 350.46 406.42 344.73 C 405.25 334.52 406.14 324.24 406.08 314.00 C 406.05 303.33 406.05 292.65 406.25 281.98 C 406.14 277.53 406.52 272.60 403.77 268.79 C 398.70 268.74 394.28 271.50 389.93 273.76 C 381.38 278.44 372.41 282.27 363.61 286.46 C 357.14 289.45 350.68 292.48 343.99 294.95 C 340.57 296.12 336.76 297.33 333.21 296.00 C 331.97 292.13 332.08 288.01 332.05 284.00 C 332.28 270.33 332.27 256.65 332.45 242.97 C 332.61 237.51 331.42 232.13 329.54 227.02 C 309.20 235.73 289.57 246.00 269.58 255.47 C 266.78 256.91 263.70 258.18 261.62 260.63 C 259.91 263.39 260.18 266.82 260.02 269.94 C 260.27 287.64 260.36 305.35 260.09 323.05 C 260.14 325.82 260.10 328.66 260.90 331.36 C 262.03 332.57 263.83 332.49 265.32 332.16 C 268.58 331.43 271.60 329.96 274.62 328.59 C 282.29 324.93 290.25 321.90 297.59 317.58 C 307.71 311.69 318.48 306.90 329.74 303.65 C 330.63 308.70 330.89 313.85 330.58 318.97 C 330.00 329.01 331.85 339.08 330.43 349.09 C 329.44 356.06 328.11 362.98 327.34 369.99 C 326.85 374.61 325.54 379.69 321.29 382.27 C 312.68 387.85 302.74 390.92 293.77 395.87 C 283.70 400.62 274.16 406.69 263.49 410.03 C 262.99 410.08 261.98 410.18 261.48 410.23 C 265.64 406.94 270.54 404.83 275.15 402.27 C 282.75 398.06 290.63 394.39 298.37 390.45 C 304.36 387.40 310.64 384.94 316.49 381.64 C 318.48 380.35 320.94 379.08 321.62 376.62 C 322.78 371.85 322.18 366.86 323.22 362.07 C 324.24 356.86 327.31 352.29 328.10 347.02 C 328.68 343.04 328.42 339.00 328.39 335.00 C 328.16 325.66 328.58 316.33 328.64 307.00 C 324.33 307.87 320.09 309.12 316.15 311.10 C 309.69 314.31 302.94 316.96 296.85 320.87 C 290.47 325.06 282.92 326.71 276.09 329.95 C 271.24 332.01 266.48 334.73 261.14 335.20 C 257.67 334.26 258.17 329.87 257.86 327.07 C 258.13 310.33 258.52 293.56 257.58 276.84 C 257.52 271.57 257.06 266.28 257.71 261.04 C 258.04 257.47 261.16 255.15 264.07 253.57 C 272.56 249.21 281.18 245.11 289.62 240.65 C 300.34 234.10 312.63 230.76 323.53 224.56 C 326.05 223.06 328.48 220.88 328.99 217.84 C 329.98 212.29 329.36 206.61 329.45 201.00 C 329.25 186.88 329.81 172.74 329.16 158.62 C 315.02 162.63 302.20 170.03 288.67 175.60 C 279.77 179.89 270.48 183.29 261.63 187.68 C 260.55 185.95 258.90 184.20 259.32 182.00 C 260.01 176.36 260.80 170.70 260.50 165.00 C 260.05 149.18 261.13 133.32 259.85 117.53 C 269.81 116.00 278.32 110.38 287.44 106.49 Z" fill="#fce2d5" opacity="1.00" stroke="#fce2d5" stroke-width="0.25"/>
  <path d="M 397.65 124.80 C 399.36 124.47 401.86 124.16 402.78 126.07 C 403.89 128.89 403.63 132.01 403.72 134.98 C 403.52 150.00 403.58 165.03 403.69 180.06 C 403.56 183.62 403.61 187.97 400.46 190.35 C 396.67 193.21 392.12 194.75 387.92 196.86 C 374.94 203.27 361.75 209.23 348.85 215.80 C 344.39 218.14 339.65 219.92 334.79 221.27 C 332.60 214.58 335.31 207.79 335.38 201.03 C 335.62 187.69 335.15 174.33 335.43 160.99 C 335.28 155.42 340.52 152.26 344.77 149.87 C 355.55 144.16 366.53 138.82 377.60 133.67 C 384.22 130.59 390.47 126.49 397.65 124.80 Z" fill="#facbae" opacity="1.00" stroke="#facbae" stroke-width="0.25"/>
  <path d="M 190.51 160.46 C 191.19 158.44 193.60 158.14 195.37 158.73 C 208.32 162.69 219.23 171.14 231.75 176.08 C 238.12 178.59 244.09 182.00 250.42 184.60 C 252.94 185.84 256.08 186.93 257.13 189.81 C 258.47 193.37 258.46 197.25 258.47 201.00 C 258.36 212.00 258.37 223.00 258.33 234.00 C 258.27 241.99 258.88 250.04 257.61 257.97 C 253.38 257.45 249.22 256.40 245.38 254.54 C 232.39 248.53 219.28 242.81 206.25 236.90 C 200.92 234.55 195.08 232.42 191.29 227.74 C 188.61 224.48 188.65 220.00 188.57 216.01 C 188.68 201.33 188.20 186.64 188.80 171.97 C 189.19 168.12 189.15 164.13 190.51 160.46 Z" fill="#97cceb" opacity="1.00" stroke="#97cceb" stroke-width="0.25"/>
  <path d="M 115.42 201.62 C 121.22 201.49 126.63 204.14 131.90 206.24 C 143.42 211.44 155.16 216.13 166.55 221.61 C 171.51 224.07 176.94 225.56 181.68 228.46 C 185.56 230.84 185.52 235.93 185.59 239.95 C 185.49 260.30 185.59 280.65 185.47 301.00 C 178.75 300.03 172.69 296.94 166.53 294.28 C 151.19 288.24 136.15 281.45 120.99 274.98 C 118.12 273.65 115.02 272.56 112.63 270.42 C 111.19 268.66 111.61 266.16 111.43 264.06 C 111.64 246.05 111.53 228.04 111.52 210.04 C 111.78 207.08 111.69 202.30 115.42 201.62 Z" fill="#97cceb" opacity="1.00" stroke="#97cceb" stroke-width="0.25"/>
  <path d="M 269.58 255.47 C 289.57 246.00 309.20 235.73 329.54 227.02 C 331.42 232.13 332.61 237.51 332.45 242.97 C 332.27 256.65 332.28 270.33 332.05 284.00 C 332.08 288.01 331.97 292.13 333.21 296.00 C 336.76 297.33 340.57 296.12 343.99 294.95 C 350.68 292.48 357.14 289.45 363.61 286.46 C 372.41 282.27 381.38 278.44 389.93 273.76 C 394.28 271.50 398.70 268.74 403.77 268.79 C 406.52 272.60 406.14 277.53 406.25 281.98 C 406.05 292.65 406.05 303.33 406.08 314.00 C 406.14 324.24 405.25 334.52 406.42 344.73 C 407.07 350.46 407.68 356.21 407.64 361.99 C 407.59 375.67 407.59 389.36 407.73 403.04 C 407.60 406.70 407.80 410.69 405.85 413.95 C 403.63 417.14 399.93 418.78 396.55 420.43 C 375.92 429.65 355.80 440.00 335.03 448.94 C 315.33 457.79 295.79 467.00 276.19 476.07 C 271.26 478.30 266.29 480.59 260.96 481.72 C 260.67 481.27 260.10 480.37 259.81 479.92 C 260.24 479.79 261.11 479.54 261.54 479.42 C 271.71 476.01 281.23 470.98 291.08 466.79 C 307.74 459.08 324.55 451.72 341.19 443.99 C 359.94 436.28 377.59 426.23 396.07 417.92 C 398.98 416.45 402.24 415.13 404.21 412.41 C 405.95 409.26 405.50 405.49 405.63 402.03 C 405.27 387.34 405.67 372.65 405.52 357.96 C 405.48 348.33 404.33 338.75 403.82 329.14 C 403.54 323.09 404.49 317.08 404.47 311.03 C 404.52 302.01 404.33 292.99 404.57 283.98 C 404.49 279.79 404.99 275.12 402.35 271.55 C 398.15 271.89 394.40 273.98 390.75 275.89 C 378.23 282.69 365.19 288.47 352.25 294.42 C 346.96 296.92 341.22 298.44 336.15 301.39 C 332.75 303.26 332.70 307.60 332.54 311.00 C 332.48 331.69 333.44 352.51 330.55 373.07 C 329.96 377.17 327.90 381.13 324.32 383.38 C 318.01 387.54 310.67 389.70 304.02 393.22 C 293.87 398.49 283.38 403.07 273.36 408.60 C 269.33 410.83 265.04 412.55 260.79 414.33 C 260.94 413.90 261.23 413.05 261.38 412.62 C 261.71 411.46 262.41 410.59 263.49 410.03 C 274.16 406.69 283.70 400.62 293.77 395.87 C 302.74 390.92 312.68 387.85 321.29 382.27 C 325.54 379.69 326.85 374.61 327.34 369.99 C 328.11 362.98 329.44 356.06 330.43 349.09 C 331.85 339.08 330.00 329.01 330.58 318.97 C 330.89 313.85 330.63 308.70 329.74 303.65 C 318.48 306.90 307.71 311.69 297.59 317.58 C 290.25 321.90 282.29 324.93 274.62 328.59 C 271.60 329.96 268.58 331.43 265.32 332.16 C 263.83 332.49 262.03 332.57 260.90 331.36 C 260.10 328.66 260.14 325.82 260.09 323.05 C 260.36 305.35 260.27 287.64 260.02 269.94 C 260.18 266.82 259.91 263.39 261.62 260.63 C 263.70 258.18 266.78 256.91 269.58 255.47 Z" fill="#facbae" opacity="1.00" stroke="#facbae" stroke-width="0.25"/>
  <path d="M 273.60 255.69 C 291.93 247.78 309.54 238.24 328.13 230.93 C 330.27 238.11 329.43 245.63 329.53 253.00 C 329.51 264.35 329.51 275.69 329.52 287.04 C 329.48 291.35 330.06 295.64 330.66 299.91 C 323.87 303.33 316.44 305.22 309.63 308.60 C 301.19 312.31 293.56 317.58 285.07 321.18 C 277.30 324.46 270.24 329.40 261.93 331.31 C 261.01 311.89 261.82 292.43 261.44 273.00 C 261.60 269.53 260.91 265.71 262.69 262.56 C 265.45 259.14 269.75 257.55 273.60 255.69 Z" fill="#f19551" opacity="1.00" stroke="#f19551" stroke-width="0.25"/>
  <path d="M 390.75 275.89 C 394.40 273.98 398.15 271.89 402.35 271.55 C 404.99 275.12 404.49 279.79 404.57 283.98 C 404.33 292.99 404.52 302.01 404.47 311.03 C 404.49 317.08 403.54 323.09 403.82 329.14 C 404.33 338.75 405.48 348.33 405.52 357.96 C 405.67 372.65 405.27 387.34 405.63 402.03 C 405.50 405.49 405.95 409.26 404.21 412.41 C 402.24 415.13 398.98 416.45 396.07 417.92 C 377.59 426.23 359.94 436.28 341.19 443.99 C 324.55 451.72 307.74 459.08 291.08 466.79 C 281.23 470.98 271.71 476.01 261.54 479.42 C 260.83 478.83 260.10 478.26 259.38 477.71 C 260.23 474.21 260.69 470.63 260.61 467.03 C 260.52 453.35 260.59 439.68 260.57 426.00 C 260.54 422.23 260.67 418.43 260.11 414.68 L 260.79 414.33 C 265.04 412.55 269.33 410.83 273.36 408.60 C 283.38 403.07 293.87 398.49 304.02 393.22 C 310.67 389.70 318.01 387.54 324.32 383.38 C 327.90 381.13 329.96 377.17 330.55 373.07 C 333.44 352.51 332.48 331.69 332.54 311.00 C 332.70 307.60 332.75 303.26 336.15 301.39 C 341.22 298.44 346.96 296.92 352.25 294.42 C 365.19 288.47 378.23 282.69 390.75 275.89 Z" fill="#f19551" opacity="1.00" stroke="#f19551" stroke-width="0.25"/>
  <path d="M 187.00 307.93 C 189.23 305.10 192.76 307.63 195.41 308.42 C 204.16 312.45 213.02 316.25 221.95 319.88 C 230.60 323.50 238.94 327.87 247.80 330.98 C 251.14 332.27 254.68 333.24 257.64 335.32 C 259.80 336.76 259.38 339.69 259.56 341.95 C 259.38 359.31 259.49 376.68 259.47 394.04 C 259.33 400.30 260.72 406.43 261.38 412.62 C 261.23 413.05 260.94 413.90 260.79 414.33 L 260.11 414.68 C 258.08 406.52 254.92 398.55 254.66 390.05 C 254.26 372.52 255.34 354.98 254.66 337.47 C 246.87 334.24 238.99 331.22 231.29 327.78 C 222.42 323.79 213.23 320.56 204.48 316.31 C 199.69 313.96 194.66 312.14 189.51 310.77 C 188.89 317.83 188.88 324.92 189.05 332.00 C 188.86 339.68 188.70 347.36 188.83 355.04 C 188.74 359.86 188.94 365.07 186.37 369.36 C 184.41 372.50 180.53 373.37 177.29 374.59 C 173.53 371.90 169.61 369.40 165.32 367.62 C 158.30 364.63 151.54 360.99 144.29 358.55 C 139.87 357.05 135.48 355.51 131.22 353.62 C 127.04 351.39 122.52 349.92 117.87 349.08 C 116.92 354.66 116.34 360.30 116.42 365.97 C 116.60 378.99 116.64 392.02 116.46 405.04 C 116.62 408.88 116.28 413.71 119.82 416.22 C 124.90 419.84 131.00 421.63 136.36 424.77 C 147.18 431.06 157.60 438.19 169.30 442.82 C 177.23 445.87 184.75 449.83 191.87 454.45 C 184.77 453.12 179.13 448.31 172.49 445.84 C 164.14 442.70 156.04 438.96 148.01 435.09 C 139.79 431.17 132.42 425.70 124.06 422.07 C 119.01 419.72 112.77 416.44 112.63 410.06 C 112.32 394.62 112.70 379.16 112.32 363.72 C 112.30 358.84 111.75 353.62 114.04 349.11 C 114.91 346.54 117.69 345.84 120.09 346.50 C 128.07 348.41 134.74 353.58 142.48 356.15 C 154.36 360.11 165.23 366.47 176.82 371.09 C 181.25 373.10 184.30 367.51 184.43 363.78 C 185.08 349.05 183.84 334.26 185.21 319.54 C 185.65 315.69 184.72 311.30 187.00 307.93 Z" fill="#97cceb" opacity="1.00" stroke="#97cceb" stroke-width="0.25"/>
  <path d="M 189.51 310.77 C 194.66 312.14 199.69 313.96 204.48 316.31 C 213.23 320.56 222.42 323.79 231.29 327.78 C 238.99 331.22 246.87 334.24 254.66 337.47 C 255.34 354.98 254.26 372.52 254.66 390.05 C 254.92 398.55 258.08 406.52 260.11 414.68 C 260.67 418.43 260.54 422.23 260.57 426.00 C 260.59 439.68 260.52 453.35 260.61 467.03 C 260.69 470.63 260.23 474.21 259.38 477.71 C 250.67 472.11 240.07 471.29 230.62 467.48 C 223.39 464.58 215.49 463.86 208.29 460.86 C 204.51 459.29 200.71 457.73 196.80 456.50 C 195.12 455.91 193.43 455.32 191.87 454.45 C 184.75 449.83 177.23 445.87 169.30 442.82 C 157.60 438.19 147.18 431.06 136.36 424.77 C 131.00 421.63 124.90 419.84 119.82 416.22 C 116.28 413.71 116.62 408.88 116.46 405.04 C 116.64 392.02 116.60 378.99 116.42 365.97 C 116.34 360.30 116.92 354.66 117.87 349.08 C 122.52 349.92 127.04 351.39 131.22 353.62 C 127.24 352.91 123.21 352.53 119.19 352.16 C 118.36 357.81 118.10 363.52 118.30 369.23 C 118.71 381.17 118.49 393.12 118.44 405.07 C 118.52 408.83 118.68 413.48 122.34 415.64 C 128.53 419.54 135.71 421.49 142.14 424.96 C 159.94 433.80 176.86 444.44 195.37 451.81 C 202.87 454.64 210.81 456.08 218.27 459.02 C 230.52 463.86 242.56 470.08 255.89 471.26 C 257.07 455.19 255.99 439.06 256.57 422.96 C 256.54 417.81 257.30 411.73 253.33 407.71 C 248.26 402.61 241.29 400.20 235.00 397.00 C 221.62 390.27 208.04 383.93 194.56 377.42 C 189.06 375.15 182.94 376.20 177.29 374.59 C 180.53 373.37 184.41 372.50 186.37 369.36 C 188.94 365.07 188.74 359.86 188.83 355.04 C 188.70 347.36 188.86 339.68 189.05 332.00 C 188.88 324.92 188.89 317.83 189.51 310.77 Z" fill="#4facdf" opacity="1.00" stroke="#4facdf" stroke-width="0.25"/>
  <path d="M 360.60 360.68 C 374.37 354.58 386.69 345.43 401.06 340.66 C 403.44 348.23 402.44 356.20 402.52 364.00 C 402.50 379.21 402.55 394.43 402.51 409.65 C 393.84 415.11 384.90 420.15 375.84 424.92 C 360.17 431.21 345.18 438.98 329.89 446.11 C 314.69 453.57 298.38 458.56 283.43 466.56 C 278.13 469.19 272.97 472.53 266.99 473.37 C 265.24 470.56 265.42 467.17 265.39 464.01 C 265.48 455.60 265.86 447.16 264.97 438.78 C 264.46 432.56 263.78 426.06 265.80 420.03 C 267.00 416.28 270.88 414.62 274.09 412.96 C 280.39 410.04 286.23 406.23 292.52 403.30 C 299.76 399.89 306.84 396.16 314.16 392.95 C 319.49 390.50 325.00 388.23 329.74 384.72 C 335.61 380.73 336.30 372.10 343.20 369.25 C 348.87 366.15 354.69 363.30 360.60 360.68 Z" fill="#df6d21" opacity="1.00" stroke="#df6d21" stroke-width="0.25"/>
  <path d="M 119.19 352.16 C 123.21 352.53 127.24 352.91 131.22 353.62 C 135.48 355.51 139.87 357.05 144.29 358.55 C 151.54 360.99 158.30 364.63 165.32 367.62 C 169.61 369.40 173.53 371.90 177.29 374.59 C 182.94 376.20 189.06 375.15 194.56 377.42 C 208.04 383.93 221.62 390.27 235.00 397.00 C 241.29 400.20 248.26 402.61 253.33 407.71 C 257.30 411.73 256.54 417.81 256.57 422.96 C 255.99 439.06 257.07 455.19 255.89 471.26 C 242.56 470.08 230.52 463.86 218.27 459.02 C 210.81 456.08 202.87 454.64 195.37 451.81 C 176.86 444.44 159.94 433.80 142.14 424.96 C 135.71 421.49 128.53 419.54 122.34 415.64 C 118.68 413.48 118.52 408.83 118.44 405.07 C 118.49 393.12 118.71 381.17 118.30 369.23 C 118.10 363.52 118.36 357.81 119.19 352.16 Z" fill="#0488ce" opacity="1.00" stroke="#0488ce" stroke-width="0.25"/>
  <path d="M 196.80 456.50 C 200.71 457.73 204.51 459.29 208.29 460.86 C 215.49 463.86 223.39 464.58 230.62 467.48 C 240.07 471.29 250.67 472.11 259.38 477.71 C 260.10 478.26 260.83 478.83 261.54 479.42 C 261.11 479.54 260.24 479.79 259.81 479.92 C 256.85 480.83 254.09 478.79 251.44 477.76 C 244.81 474.38 237.72 472.07 230.69 469.67 C 224.26 467.48 217.41 466.73 211.13 464.09 C 206.14 461.99 201.44 459.27 196.80 456.50 Z" fill="#97cceb" opacity="1.00" stroke="#97cceb" stroke-width="0.25"/>
</svg>
